# xmcd CD database file
#
# Track frame offsets:
#	150
#	19052
#	40162
#
# Disc length: 787 seconds
#
# Revision: 0
# Processed by: cddbd v1.5.1PL0 Copyright (c) Steve Scherf et al.
# Submitted via: CDex 1.51
#
DISCID=1a031103
DTITLE=東亜佐美 - 夏がキライ
DYEAR=1995
DGENRE=JPop
TTITLE0=夏がキライ
TTITLE1=違う明日を迎えたい
TTITLE2=夏がキライ(backing track)
EXTD=YEAR: 1995
EXTT0=
EXTT1=
EXTT2=
PLAYORDER=
